<svg width="15" height="15" viewBox="0 0 15 15" fill="none" xmlns="http://www.w3.org/2000/svg">
<path d="M0.000610352 0.5C0.000610352 0.367392 0.0532888 0.240215 0.147057 0.146447C0.240825 0.0526784 0.368002 0 0.50061 0H2.00061C2.11214 3.08115e-05 2.22046 0.0373507 2.30834 0.106025C2.39622 0.174699 2.45862 0.270784 2.48561 0.379L2.89061 2H14.5006C14.574 2.00007 14.6465 2.0163 14.713 2.04755C14.7794 2.0788 14.8381 2.12429 14.885 2.1808C14.9319 2.23731 14.9657 2.30345 14.9841 2.37452C15.0026 2.44558 15.0051 2.51984 14.9916 2.592L13.4916 10.592C13.4702 10.7066 13.4094 10.8101 13.3197 10.8846C13.23 10.9591 13.1172 10.9999 13.0006 11H4.00061C3.88404 10.9999 3.77118 10.9591 3.68152 10.8846C3.59187 10.8101 3.53106 10.7066 3.50961 10.592L2.01061 2.607L1.61061 1H0.50061C0.368002 1 0.240825 0.947322 0.147057 0.853553C0.0532888 0.759785 0.000610352 0.632608 0.000610352 0.5ZM3.10261 3L4.41561 10H12.5856L13.8986 3H3.10261ZM5.00061 11C4.47018 11 3.96147 11.2107 3.5864 11.5858C3.21132 11.9609 3.00061 12.4696 3.00061 13C3.00061 13.5304 3.21132 14.0391 3.5864 14.4142C3.96147 14.7893 4.47018 15 5.00061 15C5.53104 15 6.03975 14.7893 6.41482 14.4142C6.7899 14.0391 7.00061 13.5304 7.00061 13C7.00061 12.4696 6.7899 11.9609 6.41482 11.5858C6.03975 11.2107 5.53104 11 5.00061 11ZM12.0006 11C11.4702 11 10.9615 11.2107 10.5864 11.5858C10.2113 11.9609 10.0006 12.4696 10.0006 13C10.0006 13.5304 10.2113 14.0391 10.5864 14.4142C10.9615 14.7893 11.4702 15 12.0006 15C12.531 15 13.0398 14.7893 13.4148 14.4142C13.7899 14.0391 14.0006 13.5304 14.0006 13C14.0006 12.4696 13.7899 11.9609 13.4148 11.5858C13.0398 11.2107 12.531 11 12.0006 11ZM5.00061 12C5.26583 12 5.52018 12.1054 5.70772 12.2929C5.89525 12.4804 6.00061 12.7348 6.00061 13C6.00061 13.2652 5.89525 13.5196 5.70772 13.7071C5.52018 13.8946 5.26583 14 5.00061 14C4.73539 14 4.48104 13.8946 4.2935 13.7071C4.10597 13.5196 4.00061 13.2652 4.00061 13C4.00061 12.7348 4.10597 12.4804 4.2935 12.2929C4.48104 12.1054 4.73539 12 5.00061 12ZM12.0006 12C12.2658 12 12.5202 12.1054 12.7077 12.2929C12.8953 12.4804 13.0006 12.7348 13.0006 13C13.0006 13.2652 12.8953 13.5196 12.7077 13.7071C12.5202 13.8946 12.2658 14 12.0006 14C11.7354 14 11.481 13.8946 11.2935 13.7071C11.106 13.5196 11.0006 13.2652 11.0006 13C11.0006 12.7348 11.106 12.4804 11.2935 12.2929C11.481 12.1054 11.7354 12 12.0006 12Z" fill="#23A6F0"/>
</svg>
