<svg width="23" height="23" viewBox="0 0 23 23" fill="none" xmlns="http://www.w3.org/2000/svg">
<path d="M20.1308 8.41939C20.0731 8.24958 19.967 8.10037 19.8255 7.99018C19.684 7.87999 19.5133 7.81365 19.3346 7.79934L14.1054 7.38383L11.8426 2.37482C11.7706 2.21349 11.6533 2.07646 11.5051 1.98028C11.3569 1.88409 11.184 1.83286 11.0073 1.83276C10.8306 1.83267 10.6577 1.88371 10.5094 1.97973C10.361 2.07575 10.2437 2.21265 10.1714 2.3739L7.9086 7.38383L2.67945 7.79934C2.50376 7.81326 2.3358 7.8775 2.19566 7.98438C2.05552 8.09125 1.94914 8.23624 1.88925 8.40199C1.82935 8.56774 1.81848 8.74724 1.85793 8.91901C1.89737 9.09078 1.98547 9.24755 2.11168 9.37056L5.97599 13.1376L4.60931 19.0556C4.56782 19.2348 4.58112 19.4222 4.64749 19.5937C4.71386 19.7652 4.83024 19.9128 4.98153 20.0173C5.13282 20.1218 5.31202 20.1785 5.4959 20.1799C5.67977 20.1813 5.85982 20.1274 6.01268 20.0252L11.007 16.6956L16.0014 20.0252C16.1576 20.1289 16.3419 20.1823 16.5294 20.1782C16.7168 20.1741 16.8986 20.1126 17.0501 20.0022C17.2017 19.8917 17.3157 19.7374 17.377 19.5602C17.4383 19.3829 17.4438 19.1912 17.3928 19.0107L15.7152 13.1404L19.8758 9.39625C20.1482 9.15043 20.2482 8.76702 20.1308 8.41939Z" fill="#F3CD03"/>
</svg>
